# xmcd
#
# Track frame offsets: 
#        150
#        14113
#        30715
#        48082
#        65287
#        89372
#        104659
#        120728
#        139864
#        158273
#        176731
#        194466
#        212688
#        231551
#        247915
#        265183
#        279863
#        292256
#        308213
#        324997
#        343270
#
# Disc length: 4770 seconds
#
# Revision: 0
# Processed by: cddbd v1.5.2PL0 Copyright (c) Steve Scherf et al.
# Submitted via: ExactAudioCopy v0.99pb1
#
DISCID=3a12a015
DTITLE=Various Artist - Die erfolgreichsten Hits 2008 CD1
DYEAR=2008
DGENRE=Pop
TTITLE0=Amy MacDonald - This Is the Life
TTITLE1=Duffy - Mercy
TTITLE2=AmyWinehouse - Valerie
TTITLE3=Rihanna - Take a Bow
TTITLE4=Söhne Mannheims - Das hat die Welt noch nicht gesehen
TTITLE5=Gabriella Cilmi - Sweet About Me
TTITLE6=Stefanie Heinzmann - My Man Is A Mean Man
TTITLE7=Alicia Keys - No One
TTITLE8=Estelle - American Boy
TTITLE9=The Pussycat Dolls - When I Grow Up
TTITLE10=Ne-Yo - Closer
TTITLE11=Lady Gaga feat. Colby O'donis - Just Dance
TTITLE12=Peter Fox - Alles neu
TTITLE13=Culcha Candela - Ey DJ
TTITLE14=Fettes Brot mit Modeselektor - Bettina (zieh Dir bitte etwas 
TTITLE14=an)
TTITLE15=Sarah Connor - Under My Skin
TTITLE16=September - Cry For You
TTITLE17=Scooter - I'm Lonely
TTITLE18=Alex C. feat. Yass - Doktorspiele
TTITLE19=The Disco Boys - Shadows
TTITLE20=Guru Josh Project - Infinity 2008
EXTD=
EXTT0=
EXTT1=
EXTT2=
EXTT3=
EXTT4=
EXTT5=
EXTT6=
EXTT7=
EXTT8=
EXTT9=
EXTT10=
EXTT11=
EXTT12=
EXTT13=
EXTT14=
EXTT15=
EXTT16=
EXTT17=
EXTT18=
EXTT19=
EXTT20=
PLAYORDER=
